<svg xmlns="http://www.w3.org/2000/svg" width="256" height="256" viewBox="0 0 256 256">
  <rect width="256" height="256" rx="40" fill="#14242b"/>
  <rect x="34" y="34" width="94" height="188" rx="12" fill="#c8ff36"/>
  <rect x="142" y="34" width="80" height="188" rx="12" fill="#ffffff"/>
  <path d="M160 84h44M160 123h44M160 162h30" stroke="#2166f3" stroke-width="16" stroke-linecap="round"/>
  <path d="M59 177V78h34c24 0 36 12 36 30 0 14-8 24-22 28l25 41h-27l-21-37h-2v37zm23-57h8c10 0 16-4 16-12s-6-11-16-11h-8z" fill="#14242b"/>
</svg>
